<svg width="64" height="55" viewBox="0 0 64 55" fill="none" xmlns="http://www.w3.org/2000/svg">
<g clip-path="url(#clip0_2114_10)">
<path d="M44.9738 15.5885C44.578 15.7812 44.1874 15.9895 43.7967 16.2187C42.6249 16.9062 41.4686 17.7447 40.2863 18.7083L37.7707 15.8229C38.6405 15.0156 39.5832 14.2812 40.5832 13.6302C41.3801 13.1093 42.2134 12.6458 43.0728 12.25C43.4165 12.0781 43.7603 11.9166 44.1144 11.7656C42.453 8.82287 40.0624 6.7135 37.354 5.41141C34.6457 4.11454 31.6144 3.61454 28.6613 3.901C25.729 4.18225 22.8801 5.24996 20.5259 7.07808C17.8072 9.18746 15.7342 12.3437 14.9374 16.526L14.6926 17.8333L13.3905 18.0625C12.1144 18.2864 10.979 18.5937 9.97382 18.9843C9.00507 19.3593 8.14048 19.8229 7.38528 20.3697C6.78111 20.8072 6.26028 21.2968 5.81757 21.8281C4.44257 23.4687 3.80715 25.526 3.82278 27.6041C3.8384 29.7187 4.5259 31.8541 5.79673 33.6145C6.26548 34.2656 6.81757 34.8645 7.44257 35.3854C8.07798 35.9114 8.79153 36.3489 9.59361 36.677C10.2447 36.9427 10.953 37.151 11.7238 37.2916V41.1614C10.4165 40.9791 9.22382 40.6614 8.14048 40.2135C6.95819 39.7239 5.91132 39.0937 4.98944 38.3229C4.11444 37.5937 3.34882 36.7656 2.69778 35.8645C0.958192 33.4635 0.0206921 30.5364 -0.00014123 27.6197C-0.0209746 24.6718 0.895692 21.7395 2.87486 19.3645C3.51548 18.5937 4.27069 17.8854 5.13528 17.2604C6.14048 16.5312 7.29153 15.9166 8.5884 15.4114C9.48423 15.0625 10.4426 14.7708 11.453 14.5364C12.5988 9.98954 15.0415 6.47912 18.1822 4.04162C21.1197 1.76558 24.6561 0.437455 28.2967 0.0884964C31.9217 -0.260462 35.6509 0.354121 38.9999 1.9635C42.6561 3.7187 45.8436 6.64058 47.9113 10.75C48.7447 10.6197 49.578 10.5572 50.4061 10.5625C53.9061 10.5833 57.2759 11.8385 59.9374 14.7031C60.4947 15.302 61.0207 15.9791 61.5103 16.7343C63.1769 19.2968 64.0311 22.7187 63.9947 26.0677C63.9582 29.3541 63.0728 32.625 61.2603 35.0312C60.0832 36.6041 58.5624 37.8802 56.7447 38.8958C54.9947 39.875 52.953 40.6198 50.6613 41.151L50.2342 41.2031H48.5259V37.3645H50.0311C51.8697 36.9218 53.4947 36.3229 54.8749 35.552C56.2447 34.7864 57.3644 33.8541 58.203 32.7343C59.5051 31 60.1457 28.5468 60.1717 26.0312C60.203 23.3906 59.5572 20.7447 58.3019 18.8125C57.9426 18.2552 57.5467 17.7552 57.1301 17.3072C55.2499 15.2812 52.8644 14.3958 50.3853 14.3802C48.5936 14.3802 46.7342 14.8072 44.9738 15.5885ZM43.4686 29.5781C43.4322 29.5781 43.4009 29.5833 43.3644 29.5833H18.729C18.6926 29.5833 18.6561 29.5833 18.6249 29.5781C18.5103 29.5989 18.4009 29.6562 18.3228 29.7395C18.2186 29.8437 18.1509 29.9895 18.1509 30.1458V37.026C18.1509 37.1822 18.2186 37.3281 18.3228 37.4323C18.4269 37.5364 18.5728 37.6041 18.729 37.6041H43.3592C43.5155 37.6041 43.6613 37.5364 43.7655 37.4323C43.8697 37.3281 43.9374 37.1822 43.9374 37.026V30.1458C43.9374 29.9895 43.8697 29.8437 43.7655 29.7395C43.6874 29.6562 43.5832 29.5989 43.4686 29.5781ZM40.4165 49.2187V54.0468H37.1144V49.2187H40.4165ZM24.9842 49.2187V54.0468H21.6822V49.2187H24.9842ZM39.1613 32.0312C40.1092 32.0312 40.8801 32.802 40.8801 33.75C40.8801 34.6979 40.1092 35.4687 39.1613 35.4687C38.2134 35.4687 37.4426 34.6979 37.4426 33.75C37.4426 32.802 38.2082 32.0312 39.1613 32.0312ZM43.4686 39.4583C43.4322 39.4583 43.4009 39.4635 43.3644 39.4635H18.729C18.6926 39.4635 18.6561 39.4635 18.6249 39.4583C18.5103 39.4791 18.4009 39.5364 18.3228 39.6198C18.2186 39.7239 18.1509 39.8698 18.1509 40.026V46.9062C18.1509 47.0625 18.2186 47.2083 18.3228 47.3125C18.4269 47.4166 18.5728 47.4843 18.729 47.4843H43.3592C43.5155 47.4843 43.6613 47.4166 43.7655 47.3125C43.8697 47.2083 43.9374 47.0625 43.9374 46.9062V40.026C43.9374 39.8698 43.8697 39.7239 43.7655 39.6198C43.6874 39.5364 43.5832 39.4791 43.4686 39.4583ZM20.604 41.5937H22.0519V45.3385H20.604V41.5937ZM24.604 41.5937H26.0519V45.3385H24.604V41.5937ZM28.6092 41.5937H30.0572V45.3385H28.6092V41.5937ZM20.604 31.7135H22.0519V35.4583H20.604V31.7135ZM24.604 31.7135H26.0519V35.4583H24.604V31.7135ZM28.6092 31.7135H30.0572V35.4583H28.6092V31.7135Z" fill="#FFAA17"/>
</g>
<defs>
<clipPath id="clip0_2114_10">
<rect width="64" height="54.0469" fill="white"/>
</clipPath>
</defs>
</svg>
