<svg width="37" height="64" viewBox="0 0 37 64" fill="none" xmlns="http://www.w3.org/2000/svg">
<g clip-path="url(#clip0_2114_8)">
<path fill-rule="evenodd" clip-rule="evenodd" d="M14.9013 10.8683C14.9013 10.1884 15.0954 9.5573 15.4309 9.02015H21.3809C21.7165 9.55355 21.9106 10.1884 21.9106 10.8683C21.9106 12.8028 20.3404 14.3716 18.4059 14.3716C16.4714 14.3716 14.9013 12.8028 14.9013 10.8683ZM6.87029 28.3526C6.38948 28.3526 5.99883 27.9632 5.99883 27.4812C5.99883 27.0016 6.38948 26.6109 6.87029 26.6109H29.9415C30.4224 26.6109 30.813 27.0016 30.813 27.4812C30.813 27.9632 30.4224 28.3526 29.9415 28.3526H6.87029ZM6.87029 33.4913C6.38948 33.4913 5.99883 33.1019 5.99883 32.621C5.99883 32.1402 6.38948 31.7496 6.87029 31.7496H29.0901C29.5709 31.7496 29.9616 32.1402 29.9616 32.621C29.9616 33.1019 29.5709 33.4913 29.0901 33.4913H6.87029ZM6.87029 38.6311C6.38948 38.6311 5.99883 38.2405 5.99883 37.7597C5.99883 37.2789 6.38948 36.8895 6.87029 36.8895H25.8459C26.3267 36.8895 26.7174 37.2789 26.7174 37.7597C26.7174 38.2405 26.3267 38.6311 25.8459 38.6311H6.87029ZM6.87029 48.9097C6.38948 48.9097 5.99883 48.519 5.99883 48.0382C5.99883 47.5574 6.38948 47.1667 6.87029 47.1667H12.9317C13.4125 47.1667 13.8032 47.5574 13.8032 48.0382C13.8032 48.519 13.4125 48.9097 12.9317 48.9097H6.87029ZM6.87029 43.7698C6.38948 43.7698 5.99883 43.3804 5.99883 42.8996C5.99883 42.4187 6.38948 42.0281 6.87029 42.0281H16.5115C16.9923 42.0281 17.3829 42.4187 17.3829 42.8996C17.3829 43.3804 16.9923 43.7698 16.5115 43.7698H6.87029ZM6.91411 0H29.899C33.7166 0 36.8118 3.10021 36.8118 6.91537V57.0859C36.8118 60.9036 33.7166 64 29.899 64H6.91411C3.09645 64 0 60.9036 0 57.0859V6.9066C0 3.08017 3.09019 0 6.91411 0ZM2.3815 54.3951H34.4203V6.849H2.3815V54.3951ZM18.3972 56.5588C19.961 56.5588 21.2394 57.8184 21.2394 59.401C21.2394 60.9674 19.9811 62.2446 18.3972 62.2446C16.8333 62.2446 15.5536 60.9862 15.5536 59.401C15.5536 57.8384 16.8132 56.5588 18.3972 56.5588ZM22.5391 48.8521C22.686 48.9808 22.7757 49.1626 22.7886 49.3574C22.8015 49.5523 22.7366 49.7443 22.608 49.8913C22.3413 50.1968 21.8755 50.2269 21.57 49.9602L19.2498 47.9268C18.9443 47.6601 18.9143 47.1943 19.181 46.8888L19.2561 46.8149L21.57 44.7877C21.6426 44.7241 21.7271 44.6753 21.8186 44.6444C21.9101 44.6134 22.0069 44.6007 22.1032 44.6071C22.1996 44.6135 22.2938 44.6388 22.3804 44.6816C22.467 44.7244 22.5444 44.7839 22.608 44.8566C22.6716 44.9293 22.7203 45.0138 22.7513 45.1053C22.7823 45.1968 22.795 45.2935 22.7886 45.3899C22.7822 45.4862 22.7568 45.5804 22.714 45.667C22.6712 45.7536 22.6118 45.831 22.5391 45.8946L20.8513 47.3733L22.5391 48.8521ZM28.106 49.9602C27.9591 50.0884 27.7673 50.1532 27.5727 50.1403C27.3782 50.1274 27.1966 50.0378 27.068 49.8913C26.8013 49.5845 26.8313 49.12 27.1368 48.8521L28.8247 47.3733L27.1368 45.8946C27.0642 45.831 27.0047 45.7536 26.9619 45.667C26.9191 45.5804 26.8938 45.4862 26.8874 45.3899C26.8745 45.1952 26.9395 45.0034 27.068 44.8566C27.1965 44.7098 27.378 44.6201 27.5727 44.6072C27.7674 44.5943 27.9592 44.6592 28.106 44.7877L30.4211 46.8149L30.495 46.8888C30.5586 46.9614 30.6074 47.0459 30.6383 47.1374C30.6693 47.2289 30.682 47.3256 30.6756 47.422C30.6692 47.5184 30.6439 47.6126 30.6011 47.6992C30.5583 47.7858 30.4988 47.8631 30.4261 47.9268L28.106 49.9602ZM24.704 44.367C24.7967 43.9714 25.1936 43.7247 25.5905 43.8161C25.9861 43.9088 26.2328 44.3057 26.1414 44.7026L24.8154 50.3796C24.7228 50.7753 24.3259 51.0232 23.9302 50.9305C23.7398 50.8861 23.5747 50.7679 23.4712 50.602C23.3678 50.4361 23.3342 50.2359 23.378 50.0453L24.704 44.367ZM28.5204 11.001V11.7347C28.5204 12.4209 27.9595 12.9831 27.2721 12.9831H25.9949C25.8321 13.703 25.5705 14.3854 25.2249 15.0152L26.0776 15.8679C26.5621 16.3537 26.5621 17.1476 26.0776 17.6334L25.0396 18.6714C24.5537 19.1572 23.7599 19.1572 23.2741 18.6714L22.4965 17.8951C21.8428 18.3018 21.1321 18.609 20.388 18.8066V19.8671C20.388 20.5533 19.8258 21.1155 19.1396 21.1155H17.6722C16.9848 21.1155 16.4238 20.5533 16.4238 19.8671V18.8216C15.6725 18.6277 14.9546 18.3221 14.294 17.9151L13.5377 18.6714C13.0519 19.1572 12.2568 19.1572 11.7723 18.6714L10.7343 17.6334C10.2485 17.1488 10.2485 16.3537 10.7343 15.8679L11.5519 15.0515C11.1907 14.4035 10.9246 13.7069 10.7618 12.9831H9.53852C8.85237 12.9831 8.29017 12.4209 8.29017 11.7347V10.2672C8.29017 9.59987 8.81981 9.05145 9.47967 9.02015H13.6592C13.4588 9.57155 13.3566 10.1538 13.3574 10.7405C13.3574 10.8269 13.3587 10.9146 13.3637 11.001C13.3587 11.0874 13.3574 11.1738 13.3574 11.2602C13.3574 14.0336 15.605 16.2823 18.3784 16.2823C21.1518 16.2823 23.3993 14.0336 23.3993 11.2602C23.3993 11.1738 23.3981 11.0874 23.393 11.001C23.3981 10.9146 23.3993 10.8269 23.3993 10.7405C23.3993 10.1358 23.2929 9.55605 23.0975 9.02015H27.3322C27.9908 9.05145 28.5204 9.59987 28.5204 10.2672V11.001Z" fill="#FFAA17"/>
</g>
<defs>
<clipPath id="clip0_2114_8">
<rect width="36.8118" height="64" fill="white"/>
</clipPath>
</defs>
</svg>
