<svg width="64" height="62" viewBox="0 0 64 62" fill="none" xmlns="http://www.w3.org/2000/svg">
<g clip-path="url(#clip0_2114_5)">
<path fill-rule="evenodd" clip-rule="evenodd" d="M3.91162 0H60.0835C61.1512 0 62.1304 0.442708 62.8387 1.15104L62.8439 1.15625L62.8491 1.16146L62.8543 1.16667C63.5627 1.88021 64.0002 2.85417 64.0002 3.92188V57.7135C64.0002 58.7917 63.5574 59.7708 62.8491 60.4792C62.1408 61.1875 61.1616 61.6302 60.0835 61.6302H3.91162C2.84391 61.6302 1.86475 61.1927 1.1512 60.4792L1.146 60.474L1.14079 60.4688L1.13558 60.4635C0.427246 59.75 -0.0102539 58.776 -0.0102539 57.7083V3.91146C0.00016276 2.83333 0.437663 1.85417 1.146 1.14583C1.18766 1.10417 1.22933 1.0625 1.2762 1.02604C1.97412 0.390625 2.9012 0 3.91162 0ZM34.2658 51.4323C33.4429 51.4323 32.7762 50.7083 32.7762 49.8125C32.7762 48.9167 33.4429 48.1927 34.2658 48.1927H52.6095C53.4325 48.1927 54.0991 48.9167 54.0991 49.8125C54.0991 50.7083 53.4325 51.4323 52.6095 51.4323H34.2658ZM10.8439 51.4323C10.0314 51.4323 9.36995 50.7083 9.36995 49.8125C9.36995 48.9167 10.0314 48.1927 10.8439 48.1927H27.8491C28.6616 48.1927 29.3231 48.9167 29.3231 49.8125C29.3231 50.7083 28.6616 51.4323 27.8491 51.4323H10.8439ZM10.2554 44.3542C9.44287 44.3542 8.78141 43.6302 8.78141 42.7344C8.78141 41.8385 9.44287 41.1146 10.2554 41.1146H27.2606C28.0731 41.1146 28.7345 41.8385 28.7345 42.7344C28.7345 43.6302 28.0731 44.3542 27.2606 44.3542H10.2554ZM34.2658 44.3542C33.4429 44.3542 32.7762 43.6302 32.7762 42.7344C32.7762 41.8385 33.4429 41.1146 34.2658 41.1146H52.6095C53.4325 41.1146 54.0991 41.8385 54.0991 42.7344C54.0991 43.6302 53.4325 44.3542 52.6095 44.3542H34.2658ZM9.16162 18.1094H53.922V35.6354H9.16162V18.1094ZM60.4637 14.026C60.3387 14.0469 60.2137 14.0573 60.0887 14.0573H3.91162C3.78141 14.0573 3.65641 14.0469 3.53662 14.026V57.7031C3.53662 57.8073 3.57829 57.901 3.64079 57.9688L3.646 57.974C3.7137 58.0417 3.80225 58.0781 3.91162 58.0781H60.0835C60.1825 58.0781 60.2762 58.0365 60.3491 57.9635C60.4168 57.8958 60.4637 57.8021 60.4637 57.6979V14.026ZM26.1043 5.05208C27.5106 5.05208 28.646 6.19271 28.646 7.59375C28.646 8.99479 27.5054 10.1354 26.1043 10.1354C24.7033 10.1354 23.5627 8.99479 23.5627 7.59375C23.5627 6.19271 24.7033 5.05208 26.1043 5.05208ZM17.2137 5.05208C18.62 5.05208 19.7554 6.19271 19.7554 7.59375C19.7554 8.99479 18.6147 10.1354 17.2137 10.1354C15.8075 10.1354 14.672 8.99479 14.672 7.59375C14.672 6.19271 15.8127 5.05208 17.2137 5.05208ZM8.32829 5.05208C9.73454 5.05208 10.87 6.19271 10.87 7.59375C10.87 8.99479 9.72933 10.1354 8.32829 10.1354C6.92204 10.1354 5.78662 8.99479 5.78662 7.59375C5.78662 6.19271 6.92204 5.05208 8.32829 5.05208Z" fill="#FFAA17"/>
</g>
<defs>
<clipPath id="clip0_2114_5">
<rect width="64" height="61.6146" fill="white"/>
</clipPath>
</defs>
</svg>
