<svg width="64" height="64" viewBox="0 0 64 64" fill="none" xmlns="http://www.w3.org/2000/svg">
<g clip-path="url(#clip0_2114_2)">
<path d="M8.0002 44.9166C8.59395 44.4531 9.45332 44.5625 9.91686 45.1562C10.3804 45.75 10.271 46.6094 9.67728 47.0729L2.78665 52.4271L2.73457 59.6406L11.1981 59.1667L15.7919 51.8646C16.1929 51.2292 17.0367 51.0364 17.6721 51.4375C18.3075 51.8385 18.5002 52.6823 18.0992 53.3177L13.1512 61.1771C12.9273 61.5573 12.521 61.8229 12.0471 61.8489L1.4377 62.4479C1.41165 62.4479 1.38561 62.4479 1.35957 62.4479C0.609571 62.4427 0.000195901 61.8333 0.00540423 61.0781L0.0731126 51.8541C0.0418626 51.4114 0.224154 50.9635 0.599154 50.6719L8.0002 44.9166ZM20.8804 28.0885C24.3179 17.8125 28.9533 10.526 35.4742 5.93748C42.2398 1.17185 50.9377 -0.630229 62.3335 0.192687C63.12 0.249979 63.7242 0.895812 63.7346 1.66665C64.8387 14.0052 62.4429 22.7552 57.3387 29.3854C52.4273 35.7604 45.0575 40.0729 35.9117 43.6927V55.7396C35.9117 56.3281 35.5731 56.8437 35.0783 57.0885L25.7658 62.8437C25.0575 63.2812 24.1304 63.0625 23.6929 62.3542C23.5783 62.1667 23.5054 61.9635 23.4794 61.7604C21.4169 46 19.2242 45.2448 6.33874 40.7864C4.79707 40.2552 3.13561 39.6771 2.01061 39.2812C1.22415 39.0052 0.812696 38.1406 1.08874 37.3594C1.14603 37.1927 1.23457 37.0416 1.33874 36.9062L7.47936 28.1562C7.78665 27.7187 8.28665 27.4896 8.78145 27.5156L20.8804 28.0885ZM47.245 16.4791C46.4117 15.6458 45.2658 15.1354 43.995 15.1354C42.7294 15.1354 41.5783 15.651 40.745 16.4791C39.9117 17.3125 39.4012 18.4583 39.4012 19.7291C39.4012 20.9948 39.9169 22.1458 40.745 22.9791C41.5783 23.8125 42.7242 24.3229 43.995 24.3229C45.2606 24.3229 46.4117 23.8073 47.245 22.9791C48.0783 22.1458 48.5887 21 48.5887 19.7291C48.5887 18.4583 48.0731 17.3125 47.245 16.4791Z" fill="#FFAA17"/>
</g>
<defs>
<clipPath id="clip0_2114_2">
<rect width="64" height="63.0625" fill="white"/>
</clipPath>
</defs>
</svg>
