<svg width="64" height="54" viewBox="0 0 64 54" fill="none" xmlns="http://www.w3.org/2000/svg">
<g clip-path="url(#clip0_2114_13)">
<path fill-rule="evenodd" clip-rule="evenodd" d="M1.73959 0H62.2604C62.7214 0.00137391 63.163 0.185092 63.489 0.51103C63.8149 0.836968 63.9986 1.27864 64 1.73958V41.8437C63.9986 42.3047 63.8149 42.7464 63.489 43.0723C63.163 43.3982 62.7214 43.582 62.2604 43.5833H1.73959C1.51046 43.5826 1.28371 43.5368 1.07228 43.4485C0.860857 43.3602 0.668896 43.2311 0.50736 43.0686C0.345825 42.9061 0.217879 42.7134 0.130827 42.5014C0.0437752 42.2895 -0.000677192 42.0625 7.79749e-06 41.8333V1.72917C0.00411762 1.27003 0.189043 0.831024 0.514686 0.507331C0.840329 0.183637 1.28044 0.00135221 1.73959 0ZM7.02605 33.2865C6.8422 33.2979 6.65796 33.2716 6.48467 33.2091C6.31139 33.1466 6.15274 33.0493 6.01851 32.9231C5.88427 32.797 5.77729 32.6447 5.70417 32.4756C5.63104 32.3066 5.59331 32.1243 5.59331 31.9401C5.59331 31.7559 5.63104 31.5736 5.70417 31.4046C5.77729 31.2355 5.88427 31.0832 6.01851 30.9571C6.15274 30.8309 6.31139 30.7336 6.48467 30.6711C6.65796 30.6086 6.8422 30.5823 7.02605 30.5937H27.5729C27.7568 30.5823 27.941 30.6086 28.1143 30.6711C28.2876 30.7336 28.4462 30.8309 28.5805 30.9571C28.7147 31.0832 28.8217 31.2355 28.8948 31.4046C28.9679 31.5736 29.0057 31.7559 29.0057 31.9401C29.0057 32.1243 28.9679 32.3066 28.8948 32.4756C28.8217 32.6447 28.7147 32.797 28.5805 32.9231C28.4462 33.0493 28.2876 33.1466 28.1143 33.2091C27.941 33.2716 27.7568 33.2979 27.5729 33.2865H7.02605ZM7.10417 26.3698C6.76157 26.3485 6.43999 26.1973 6.20492 25.9472C5.96986 25.6971 5.839 25.3667 5.839 25.0234C5.839 24.6802 5.96986 24.3498 6.20492 24.0997C6.43999 23.8495 6.76157 23.6984 7.10417 23.6771H22.0833C22.4259 23.6984 22.7475 23.8495 22.9826 24.0997C23.2177 24.3498 23.3485 24.6802 23.3485 25.0234C23.3485 25.3667 23.2177 25.6971 22.9826 25.9472C22.7475 26.1973 22.4259 26.3485 22.0833 26.3698H7.10417ZM7.02605 19.4792C6.8422 19.4906 6.65796 19.4643 6.48467 19.4018C6.31139 19.3393 6.15274 19.242 6.01851 19.1158C5.88427 18.9897 5.77729 18.8374 5.70417 18.6683C5.63104 18.4993 5.59331 18.317 5.59331 18.1328C5.59331 17.9486 5.63104 17.7664 5.70417 17.5973C5.77729 17.4282 5.88427 17.2759 6.01851 17.1498C6.15274 17.0236 6.31139 16.9263 6.48467 16.8638C6.65796 16.8014 6.8422 16.775 7.02605 16.7865H17.6302C17.9728 16.8078 18.2944 16.9589 18.5295 17.2091C18.7645 17.4592 18.8954 17.7895 18.8954 18.1328C18.8954 18.4761 18.7645 18.8064 18.5295 19.0566C18.2944 19.3067 17.9728 19.4578 17.6302 19.4792H7.02605ZM7.02605 12.5729C6.8422 12.5844 6.65796 12.558 6.48467 12.4955C6.31139 12.4331 6.15274 12.3357 6.01851 12.2096C5.88427 12.0835 5.77729 11.9312 5.70417 11.7621C5.63104 11.593 5.59331 11.4108 5.59331 11.2266C5.59331 11.0424 5.63104 10.8601 5.70417 10.691C5.77729 10.522 5.88427 10.3697 6.01851 10.2435C6.15274 10.1174 6.31139 10.0201 6.48467 9.95759C6.65796 9.8951 6.8422 9.86877 7.02605 9.88021H13.1771C13.5197 9.90153 13.8413 10.0527 14.0763 10.3028C14.3114 10.5529 14.4423 10.8833 14.4423 11.2266C14.4423 11.5698 14.3114 11.9002 14.0763 12.1503C13.8413 12.4005 13.5197 12.5516 13.1771 12.5729H7.02605ZM57.5469 26.2135V29.5677L50.6563 33.474V29.5677L55.0938 27.8802L50.6563 26.2135V22.3073L57.5469 26.2135ZM45.6094 34.5469H42.7083L46.3542 20.4271H49.2865L45.6406 34.5469H45.6094ZM40.7083 26.2135L36.2656 27.8802L40.7083 29.5677V33.474L33.8542 29.5677V26.2135L40.75 22.3073V26.2135H40.7083ZM43.6615 6.06771V7.97917C43.6615 8.23195 43.561 8.47438 43.3823 8.65313C43.2036 8.83187 42.9611 8.93229 42.7083 8.93229H41.1458C40.9507 9.57441 40.6704 10.1875 40.3125 10.7552L41.3542 11.7969C41.5316 11.9754 41.6313 12.217 41.6313 12.4687C41.6313 12.7205 41.5316 12.9621 41.3542 13.1406L39.9427 14.5521C39.7641 14.7296 39.5226 14.8292 39.2708 14.8292C39.0191 14.8292 38.7775 14.7296 38.599 14.5521L37.4635 13.4167C36.8727 13.7336 36.2421 13.9701 35.5885 14.1198V15.5885C35.5872 15.8409 35.4863 16.0825 35.3079 16.261C35.1294 16.4394 34.8878 16.5403 34.6354 16.5417H32.6198C32.3674 16.5403 32.1258 16.4394 31.9473 16.261C31.7689 16.0825 31.668 15.8409 31.6667 15.5885V13.9844C31.0243 13.7922 30.411 13.5136 29.8438 13.1562L28.8021 14.1979C28.7139 14.2872 28.6089 14.3581 28.4931 14.4065C28.3773 14.4549 28.2531 14.4798 28.1276 14.4798C28.0021 14.4798 27.8779 14.4549 27.7621 14.4065C27.6463 14.3581 27.5413 14.2872 27.4531 14.1979L26.0417 12.7865C25.8701 12.608 25.7743 12.37 25.7743 12.1224C25.7743 11.8748 25.8701 11.6368 26.0417 11.4583L27.1771 10.3281C26.8601 9.73547 26.6236 9.10315 26.474 8.44792H25C24.7472 8.44792 24.5048 8.3475 24.326 8.16875C24.1473 7.99001 24.0469 7.74758 24.0469 7.49479V6.08854H1.60938V36.8958C1.60938 37.3102 1.774 37.7077 2.06703 38.0007C2.36005 38.2937 2.75748 38.4583 3.17188 38.4583H60.8594C61.2738 38.4583 61.6712 38.2937 61.9642 38.0007C62.2573 37.7077 62.4219 37.3102 62.4219 36.8958V6.06771H43.6615ZM37.7136 6.06771H30.0104C29.9728 6.28795 29.9536 6.51095 29.9531 6.73437C30.0252 7.72109 30.4681 8.64397 31.1927 9.31757C31.9173 9.99117 32.87 10.3656 33.8594 10.3656C34.8487 10.3656 35.8014 9.99117 36.526 9.31757C37.2507 8.64397 37.6935 7.72109 37.7656 6.73437C37.7668 6.51109 37.7494 6.2881 37.7136 6.06771ZM59.4792 2.5625C59.6852 2.5625 59.8866 2.62359 60.0579 2.73805C60.2292 2.85251 60.3627 3.0152 60.4415 3.20554C60.5204 3.39588 60.541 3.60532 60.5008 3.80739C60.4606 4.00945 60.3614 4.19506 60.2157 4.34074C60.0701 4.48642 59.8845 4.58563 59.6824 4.62582C59.4803 4.66601 59.2709 4.64538 59.0805 4.56654C58.8902 4.4877 58.7275 4.35419 58.6131 4.18289C58.4986 4.01158 58.4375 3.81019 58.4375 3.60417C58.4375 3.3279 58.5473 3.06295 58.7426 2.8676C58.938 2.67225 59.2029 2.5625 59.4792 2.5625ZM52.4792 2.5625C52.6852 2.5625 52.8866 2.62359 53.0579 2.73805C53.2292 2.85251 53.3627 3.0152 53.4415 3.20554C53.5204 3.39588 53.541 3.60532 53.5008 3.80739C53.4606 4.00945 53.3614 4.19506 53.2157 4.34074C53.0701 4.48642 52.8845 4.58563 52.6824 4.62582C52.4803 4.66601 52.2709 4.64538 52.0805 4.56654C51.8902 4.4877 51.7275 4.35419 51.6131 4.18289C51.4986 4.01158 51.4375 3.81019 51.4375 3.60417C51.4375 3.3279 51.5473 3.06295 51.7426 2.8676C51.938 2.67225 52.2029 2.5625 52.4792 2.5625ZM55.9792 2.5625C56.1852 2.5625 56.3866 2.62359 56.5579 2.73805C56.7292 2.85251 56.8627 3.0152 56.9415 3.20554C57.0204 3.39588 57.041 3.60532 57.0008 3.80739C56.9606 4.00945 56.8614 4.19506 56.7157 4.34074C56.5701 4.48642 56.3845 4.58563 56.1824 4.62582C55.9803 4.66601 55.7709 4.64538 55.5805 4.56654C55.3902 4.4877 55.2275 4.35419 55.1131 4.18289C54.9986 4.01158 54.9375 3.81019 54.9375 3.60417C54.9375 3.3279 55.0473 3.06295 55.2426 2.8676C55.438 2.67225 55.7029 2.5625 55.9792 2.5625ZM24.1094 45.974H39.8906C39.9323 48.7031 41.0573 51.151 44.1042 53.0729H19.8958C22.349 51.2969 24.1198 49.1458 24.1094 45.974Z" fill="#FFAA17"/>
</g>
<defs>
<clipPath id="clip0_2114_13">
<rect width="64" height="53.0729" fill="white"/>
</clipPath>
</defs>
</svg>
